<svg width="33" height="33" viewBox="0 0 33 33" fill="none" xmlns="http://www.w3.org/2000/svg">
<path d="M32.2679 0.757075C31.8003 0.28841 31.1655 0.0250285 30.5034 0.0250285C29.8414 0.0250285 29.2065 0.28841 28.7389 0.757075L16.5 12.971L4.26109 0.732047C3.79348 0.263382 3.15863 0 2.49659 0C1.83454 0 1.19969 0.263382 0.732082 0.732047C-0.244027 1.70816 -0.244027 3.28495 0.732082 4.26106L12.971 16.5L0.732082 28.7389C-0.244027 29.715 -0.244027 31.2918 0.732082 32.2679C1.70819 33.244 3.28498 33.244 4.26109 32.2679L16.5 20.029L28.7389 32.2679C29.715 33.244 31.2918 33.244 32.2679 32.2679C33.244 31.2918 33.244 29.715 32.2679 28.7389L20.029 16.5L32.2679 4.26106C33.219 3.30998 33.219 1.70816 32.2679 0.757075Z" fill="white"/>
</svg>
