<svg width="454" height="203" viewBox="0 0 454 203" fill="none" xmlns="http://www.w3.org/2000/svg">
<path d="M33.264 200V99.2H49.824V200H33.264ZM3.168 115.04V99.2H79.92V115.04H3.168ZM145.992 200L109.56 102.224L108.696 99.2H125.256L163.56 198.848V200H145.992ZM70.3924 200V198.848L108.696 99.2H125.256L123.96 102.224L87.5284 200H70.3924ZM87.3844 176.096L91.7044 160.256H143.688L148.008 176.096H87.3844ZM237.489 200L171.393 103.664V99.2H187.953L254.049 195.536V200H237.489ZM171.393 200V99.2H187.953V200H171.393ZM237.489 200V99.2H254.049V200H237.489ZM206.097 89.696L215.601 68.816H236.193V69.968L222.369 89.696H206.097ZM315.638 202.16C306.23 202.16 297.926 199.952 290.726 195.536C283.526 191.12 277.91 184.976 273.878 177.104C269.942 169.232 267.974 160.064 267.974 149.6C267.974 139.04 269.942 129.872 273.878 122.096C277.91 114.224 283.526 108.08 290.726 103.664C297.926 99.248 306.23 97.04 315.638 97.04C325.526 97.04 334.262 99.632 341.846 104.816C349.43 110 354.902 117.2 358.262 126.416L343.718 130.592L342.134 130.304C339.926 124.736 336.47 120.464 331.766 117.488C327.062 114.416 321.734 112.88 315.782 112.88C309.542 112.88 304.07 114.416 299.366 117.488C294.758 120.464 291.158 124.688 288.566 130.16C285.974 135.632 284.678 142.112 284.678 149.6C284.678 157.088 285.974 163.568 288.566 169.04C291.158 174.512 294.758 178.784 299.366 181.856C304.07 184.832 309.542 186.32 315.782 186.32C321.734 186.32 327.062 184.784 331.766 181.712C336.47 178.64 339.926 174.368 342.134 168.896L343.718 168.608L358.262 172.784C354.902 182 349.43 189.2 341.846 194.384C334.262 199.568 325.526 202.16 315.638 202.16ZM436.04 200L399.608 102.224L398.744 99.2H415.304L453.608 198.848V200H436.04ZM360.44 200V198.848L398.744 99.2H415.304L414.008 102.224L377.576 200H360.44ZM377.432 176.096L381.752 160.256H433.736L438.056 176.096H377.432Z" fill="#B20606" fill-opacity="0.2"/>
<rect x="255.5" y="1.5" width="197" height="197" fill="#B20606" fill-opacity="0.1" stroke="#B20606" stroke-width="3"/>
</svg>
