<svg width="92" height="92" viewBox="0 0 92 92" fill="none" xmlns="http://www.w3.org/2000/svg">
<path d="M27.3373 13.6676L77.8347 64.166L77.8347 90.6678L7.12309e-05 13.6696L27.3373 13.6676Z" fill="#B20606"/>
<path d="M22.5385 21.6294C22.8817 21.2862 23.0467 20.9166 23.0335 20.5206C23.0269 20.1312 22.8388 19.7518 22.4692 19.3822L20.4398 17.3528L21.4694 16.3232L23.5879 18.4417C24.2676 19.1215 24.6108 19.8475 24.6174 20.6196C24.6306 21.3984 24.3138 22.1111 23.6671 22.7579L22.5385 21.6294ZM13.9557 22.6688L20.8853 15.7392L21.994 16.8479L15.0644 23.7775L13.9557 22.6688ZM17.2423 20.5503L18.2718 19.5208L20.3012 21.5502C20.6708 21.9197 21.0503 22.1078 21.4397 22.1144C21.8357 22.1276 22.2019 21.9659 22.5385 21.6294L23.6671 22.7579C23.0269 23.3981 22.3174 23.7116 21.5387 23.6984C20.7665 23.6918 20.0405 23.3486 19.3608 22.6688L17.2423 20.5503ZM22.8982 31.9083C22.2514 31.2615 21.8224 30.5356 21.6112 29.7304C21.4132 28.9252 21.4429 28.1102 21.7003 27.2852C21.9643 26.4537 22.456 25.6782 23.1753 24.9588C23.8947 24.2395 24.6669 23.7511 25.4918 23.4937C26.3234 23.2297 27.1384 23.2 27.937 23.4046C28.7488 23.6092 29.478 24.0349 30.1248 24.6817C30.7781 25.335 31.2038 26.0643 31.4018 26.8694C31.6064 27.668 31.5767 28.4831 31.3127 29.3146C31.0553 30.1396 30.567 30.9117 29.8476 31.6311C29.1282 32.3505 28.3528 32.8421 27.5212 33.1061C26.6963 33.3635 25.8812 33.3932 25.076 33.1952C24.2775 32.9906 23.5515 32.5617 22.8982 31.9083ZM23.9871 30.8193C24.4095 31.2417 24.8879 31.5156 25.4225 31.641C25.9637 31.7598 26.5148 31.7235 27.0757 31.5321C27.6433 31.3473 28.1845 30.9975 28.6993 30.4828C29.2206 29.9614 29.5737 29.4169 29.7585 28.8493C29.9499 28.2884 29.9829 27.7406 29.8575 27.206C29.7321 26.6715 29.4582 26.193 29.0358 25.7706C28.6135 25.3482 28.135 25.0743 27.6004 24.9489C27.0658 24.8235 26.5148 24.8532 25.9472 25.038C25.3862 25.2294 24.8451 25.5858 24.3237 26.1072C23.8089 26.622 23.4558 27.1598 23.2644 27.7208C23.0796 28.2884 23.0466 28.8427 23.1654 29.3839C23.2908 29.9185 23.5647 30.397 23.9871 30.8193ZM36.1117 35.2025C36.4548 34.8593 36.6198 34.4897 36.6066 34.0938C36.6 33.7044 36.4119 33.3249 36.0424 32.9553L34.013 30.9259L35.0425 29.8964L37.161 32.0149C37.8408 32.6946 38.184 33.4206 38.1905 34.1927C38.2037 34.9715 37.887 35.6843 37.2402 36.331L36.1117 35.2025ZM27.5288 36.2419L34.4584 29.3123L35.5672 30.421L28.6375 37.3507L27.5288 36.2419ZM30.8154 34.1234L31.845 33.0939L33.8744 35.1233C34.244 35.4929 34.6234 35.681 35.0128 35.6876C35.4088 35.7008 35.7751 35.5391 36.1117 35.2025L37.2402 36.331C36.6 36.9712 35.8906 37.2847 35.1118 37.2715C34.3396 37.2649 33.6137 36.9217 32.9339 36.2419L30.8154 34.1234ZM35.9862 44.9963C35.4384 44.4486 35.0755 43.8678 34.8973 43.254C34.7191 42.6403 34.7191 42.0265 34.8973 41.4127C35.0887 40.799 35.4582 40.2182 36.006 39.6704L40.4113 35.2651L41.5497 36.4036L37.1247 40.8287C36.6231 41.3302 36.3657 41.845 36.3525 42.373C36.3459 42.9075 36.5868 43.419 37.0752 43.9074C37.5635 44.3958 38.0717 44.6334 38.5997 44.6202C39.1277 44.607 39.6424 44.3496 40.144 43.848L44.5691 39.4229L45.7075 40.5614L41.3022 44.9666C40.7545 45.5144 40.1704 45.8807 39.55 46.0655C38.9429 46.2503 38.3324 46.2536 37.7186 46.0754C37.1049 45.8972 36.5274 45.5375 35.9862 44.9963ZM40.1255 48.8387L47.0552 41.909L48.1936 43.0475L41.264 49.9771L40.1255 48.8387ZM40.7096 49.4227L41.7985 48.3338L45.6989 52.2342L44.61 53.3231L40.7096 49.4227ZM49.995 58.7081L54.2122 49.4818L54.3607 49.2145L55.4991 50.353L51.2819 59.8367L51.2027 59.9159L49.995 58.7081ZM44.7978 53.5109L44.877 53.4317L54.3607 49.2145L55.4991 50.353L55.2021 50.4718L45.9758 54.689L44.7978 53.5109ZM47.6092 53.0357L48.9952 52.2438L52.5689 55.8175L51.7769 57.2034L47.6092 53.0357ZM51.9392 60.6523L58.8688 53.7227L59.9776 54.8314L53.0479 61.7611L51.9392 60.6523ZM55.2258 58.5338L56.2652 57.4944L58.3936 59.6228C58.7632 59.9924 59.1427 60.1804 59.5321 60.187C59.9281 60.2002 60.291 60.0418 60.621 59.7119L61.7793 60.8701C61.1391 61.5103 60.4263 61.8205 59.641 61.8007C58.8622 61.7875 58.1297 61.4377 57.4433 60.7513L55.2258 58.5338ZM60.621 59.7119C60.9576 59.3753 61.1193 59.009 61.1061 58.613C61.0995 58.2236 60.9114 57.8442 60.5418 57.4746L58.4134 55.3462L59.4529 54.3067L61.6704 56.5242C62.3567 57.2106 62.7065 57.9432 62.7197 58.7219C62.7395 59.5073 62.426 60.2233 61.7793 60.8701L60.621 59.7119ZM55.7604 64.4735L57.1859 59.8802L58.5916 60.6523L57.0671 65.6219L56.9879 65.7011L55.7604 64.4735ZM62.5832 71.2964L64.6621 60.1297L64.969 59.8228L66.1074 60.9613L64.0285 72.1279L63.7217 72.4348L62.5832 71.2964ZM58.0393 66.7525L64.969 59.8228L66.1074 60.9613L59.1778 67.8909L58.0393 66.7525ZM62.5832 71.2964L69.5129 64.3667L70.6513 65.5052L63.7217 72.4348L62.5832 71.2964ZM65.1739 73.8871L72.1036 66.9574L73.242 68.0959L66.3124 75.0255L65.1739 73.8871ZM65.758 74.4712L66.847 73.3822L70.8464 77.3816L69.7574 78.4706L65.758 74.4712ZM68.7279 71.5013L69.8168 70.4124L73.5588 74.1544L72.4699 75.2433L68.7279 71.5013ZM71.5987 68.6305L72.6877 67.5415L76.6871 71.5409L75.5981 72.6299L71.5987 68.6305Z" fill="white" fill-opacity="0.9"/>
</svg>
