<svg width="564" height="203" viewBox="0 0 564 203" fill="none" xmlns="http://www.w3.org/2000/svg">
<path d="M45.504 202.16C38.496 202.16 32.16 200.912 26.496 198.416C20.928 195.92 16.272 192.416 12.528 187.904C8.784 183.296 6.288 178.016 5.04 172.064L20.16 168.176L21.744 168.464C22.992 172.016 24.768 175.184 27.072 177.968C29.472 180.656 32.304 182.768 35.568 184.304C38.832 185.84 42.336 186.608 46.08 186.608C49.92 186.608 53.28 186.032 56.16 184.88C59.04 183.632 61.296 181.952 62.928 179.84C64.656 177.632 65.52 175.136 65.52 172.352C65.52 168.896 64.416 166.16 62.208 164.144C60.096 162.032 56.928 160.4 52.704 159.248L34.56 154.496C26.016 152.192 19.488 148.496 14.976 143.408C10.56 138.32 8.352 132.416 8.352 125.696C8.352 120.032 9.792 115.088 12.672 110.864C15.552 106.544 19.584 103.184 24.768 100.784C29.952 98.288 35.952 97.04 42.768 97.04C49.296 97.04 55.152 98.24 60.336 100.64C65.616 102.944 69.984 106.208 73.44 110.432C76.896 114.656 79.152 119.696 80.208 125.552L65.952 128.72L64.368 128.432C63.216 123.44 60.72 119.552 56.88 116.768C53.04 113.984 48.288 112.592 42.624 112.592C37.44 112.592 33.312 113.84 30.24 116.336C27.168 118.736 25.632 121.856 25.632 125.696C25.632 128.864 26.736 131.552 28.944 133.76C31.248 135.968 34.608 137.648 39.024 138.8L57.168 143.552C65.52 145.76 71.856 149.264 76.176 154.064C80.592 158.768 82.8 164.624 82.8 171.632C82.8 177.776 81.264 183.152 78.192 187.76C75.12 192.272 70.752 195.824 65.088 198.416C59.52 200.912 52.992 202.16 45.504 202.16ZM96.6476 200V99.2H113.208V200H96.6476ZM131.455 200V99.2H148.015V200H131.455ZM139.951 200V184.16H198.127V200H139.951ZM139.951 156.8V140.96H194.383V156.8H139.951ZM139.951 115.04V99.2H198.127V115.04H139.951ZM222.186 200V184.16H248.394C254.634 184.16 260.01 182.72 264.522 179.84C269.034 176.864 272.49 172.784 274.89 167.6C277.29 162.416 278.49 156.416 278.49 149.6C278.49 142.688 277.29 136.64 274.89 131.456C272.49 126.272 269.034 122.24 264.522 119.36C260.01 116.48 254.634 115.04 248.394 115.04H222.186V99.2H248.394C257.994 99.2 266.298 101.36 273.306 105.68C280.314 109.904 285.69 115.808 289.434 123.392C293.178 130.976 295.05 139.712 295.05 149.6C295.05 159.488 293.178 168.224 289.434 175.808C285.69 183.392 280.314 189.344 273.306 193.664C266.298 197.888 257.994 200 248.394 200H222.186ZM212.106 200V99.2H228.666V200H212.106ZM309.07 200V99.2H325.63V200H309.07ZM317.566 200V184.16H374.302V200H317.566ZM423.222 202.16C413.814 202.16 405.51 199.952 398.31 195.536C391.11 191.12 385.494 184.976 381.462 177.104C377.526 169.232 375.558 160.064 375.558 149.6C375.558 139.04 377.526 129.872 381.462 122.096C385.494 114.224 391.11 108.08 398.31 103.664C405.51 99.248 413.814 97.04 423.222 97.04C433.11 97.04 441.846 99.632 449.43 104.816C457.014 110 462.486 117.2 465.846 126.416L451.302 130.592L449.718 130.304C447.51 124.736 444.054 120.464 439.35 117.488C434.646 114.416 429.318 112.88 423.366 112.88C417.126 112.88 411.654 114.416 406.95 117.488C402.342 120.464 398.742 124.688 396.15 130.16C393.558 135.632 392.262 142.112 392.262 149.6C392.262 157.088 393.558 163.568 396.15 169.04C398.742 174.512 402.342 178.784 406.95 181.856C411.654 184.832 417.126 186.32 423.366 186.32C429.318 186.32 434.646 184.784 439.35 181.712C444.054 178.64 447.51 174.368 449.718 168.896L451.302 168.608L465.846 172.784C462.486 182 457.014 189.2 449.43 194.384C441.846 199.568 433.11 202.16 423.222 202.16ZM478.248 200V99.2H494.808V200H478.248ZM486.744 200V184.16H544.92V200H486.744ZM486.744 156.8V140.96H541.176V156.8H486.744ZM486.744 115.04V99.2H544.92V115.04H486.744Z" fill="#B20606" fill-opacity="0.2"/>
<rect x="3.5" y="1.5" width="197" height="197" fill="#B20606" fill-opacity="0.1" stroke="#B20606" stroke-width="3"/>
</svg>
