<svg width="120" height="24" viewBox="0 0 120 24" fill="none" xmlns="http://www.w3.org/2000/svg">
<path d="M12.129 16.0608L12 15.9831L11.871 16.0608L7.72101 18.5608L7.72097 18.5607L7.7158 18.564C7.57451 18.6539 7.43673 18.6876 7.29578 18.6758C7.14126 18.6629 7.01302 18.6128 6.9035 18.5276C6.78488 18.4354 6.69266 18.3205 6.62573 18.18C6.5702 18.0634 6.55436 17.9264 6.59356 17.7564C6.59358 17.7563 6.5936 17.7562 6.59361 17.7562L7.6935 13.0316L7.72775 12.8845L7.61345 12.7858L3.94048 9.61252C3.80811 9.49285 3.73566 9.36707 3.70681 9.23434C3.67511 9.08855 3.68453 8.94909 3.73496 8.81039C3.78871 8.66257 3.86616 8.54927 3.96464 8.4631C4.05038 8.38807 4.1816 8.32746 4.37889 8.29838L9.22184 7.874L9.37191 7.86085L9.4304 7.72202L11.3054 3.27202L11.3058 3.2711C11.3696 3.11802 11.4632 3.0125 11.5865 2.94201C11.7276 2.8614 11.8644 2.82495 12 2.82495C12.1356 2.82495 12.2724 2.8614 12.4135 2.94201C12.5368 3.0125 12.6305 3.11802 12.6942 3.27111L12.6946 3.27202L14.5696 7.72202L14.6281 7.86085L14.7782 7.874L19.6211 8.29838C19.8184 8.32746 19.9496 8.38807 20.0354 8.4631C20.1339 8.54927 20.2113 8.66257 20.2651 8.81039C20.3155 8.94909 20.3249 9.08855 20.2932 9.23434C20.2644 9.36707 20.1919 9.49286 20.0595 9.61253L16.3866 12.7858L16.2723 12.8845L16.3065 13.0316L17.4064 17.7562C17.4064 17.7563 17.4065 17.7564 17.4065 17.7565C17.4457 17.9265 17.4298 18.0634 17.3743 18.18C17.3074 18.3205 17.2152 18.4354 17.0965 18.5276C16.987 18.6128 16.8588 18.6629 16.7043 18.6758C16.5633 18.6876 16.4255 18.6539 16.2842 18.564L16.2843 18.564L16.279 18.5608L12.129 16.0608Z" fill="#EFA150" stroke="black" stroke-width="0.5"/>
<path d="M60.129 16.0608L60 15.9831L59.871 16.0608L55.721 18.5608L55.721 18.5607L55.7158 18.564C55.5745 18.6539 55.4367 18.6876 55.2958 18.6758C55.1413 18.6629 55.013 18.6128 54.9035 18.5276C54.7849 18.4354 54.6927 18.3205 54.6257 18.18C54.5702 18.0634 54.5544 17.9264 54.5936 17.7564C54.5936 17.7563 54.5936 17.7562 54.5936 17.7562L55.6935 13.0316L55.7278 12.8845L55.6135 12.7858L51.9405 9.61252C51.8081 9.49285 51.7357 9.36707 51.7068 9.23434C51.6751 9.08855 51.6845 8.94909 51.735 8.81039C51.7887 8.66257 51.8662 8.54927 51.9646 8.4631C52.0504 8.38807 52.1816 8.32746 52.3789 8.29838L57.2218 7.874L57.3719 7.86085L57.4304 7.72202L59.3054 3.27202L59.3058 3.2711C59.3696 3.11802 59.4632 3.0125 59.5865 2.94201C59.7276 2.8614 59.8644 2.82495 60 2.82495C60.1356 2.82495 60.2724 2.8614 60.4135 2.94201C60.5368 3.0125 60.6305 3.11802 60.6942 3.27111L60.6946 3.27202L62.5696 7.72202L62.6281 7.86085L62.7782 7.874L67.6211 8.29838C67.8184 8.32746 67.9496 8.38807 68.0354 8.4631C68.1339 8.54927 68.2113 8.66257 68.2651 8.81039C68.3155 8.94909 68.3249 9.08855 68.2932 9.23434C68.2644 9.36707 68.1919 9.49286 68.0595 9.61253L64.3866 12.7858L64.2723 12.8845L64.3065 13.0316L65.4064 17.7562C65.4064 17.7563 65.4065 17.7564 65.4065 17.7565C65.4457 17.9265 65.4298 18.0634 65.3743 18.18C65.3074 18.3205 65.2152 18.4354 65.0965 18.5276C64.987 18.6128 64.8588 18.6629 64.7043 18.6758C64.5633 18.6876 64.4255 18.6539 64.2842 18.564L64.2843 18.564L64.279 18.5608L60.129 16.0608Z" fill="#EFA150" stroke="black" stroke-width="0.5"/>
<path d="M36.129 16.0608L36 15.9831L35.871 16.0608L31.721 18.5608L31.721 18.5607L31.7158 18.564C31.5745 18.6539 31.4367 18.6876 31.2958 18.6758C31.1413 18.6629 31.013 18.6128 30.9035 18.5276C30.7849 18.4354 30.6927 18.3205 30.6257 18.18C30.5702 18.0634 30.5544 17.9264 30.5936 17.7564C30.5936 17.7563 30.5936 17.7562 30.5936 17.7562L31.6935 13.0316L31.7278 12.8845L31.6135 12.7858L27.9405 9.61252C27.8081 9.49285 27.7357 9.36707 27.7068 9.23434C27.6751 9.08855 27.6845 8.94909 27.735 8.81039C27.7887 8.66257 27.8662 8.54927 27.9646 8.4631C28.0504 8.38807 28.1816 8.32746 28.3789 8.29838L33.2218 7.874L33.3719 7.86085L33.4304 7.72202L35.3054 3.27202L35.3058 3.2711C35.3696 3.11802 35.4632 3.0125 35.5865 2.94201C35.7276 2.8614 35.8644 2.82495 36 2.82495C36.1356 2.82495 36.2724 2.8614 36.4135 2.94201C36.5368 3.0125 36.6305 3.11802 36.6942 3.27111L36.6946 3.27202L38.5696 7.72202L38.6281 7.86085L38.7782 7.874L43.6211 8.29838C43.8184 8.32746 43.9496 8.38807 44.0354 8.4631C44.1339 8.54927 44.2113 8.66257 44.2651 8.81039C44.3155 8.94909 44.3249 9.08855 44.2932 9.23434C44.2644 9.36707 44.1919 9.49286 44.0595 9.61253L40.3866 12.7858L40.2723 12.8845L40.3065 13.0316L41.4064 17.7562C41.4064 17.7563 41.4065 17.7564 41.4065 17.7565C41.4457 17.9265 41.4298 18.0634 41.3743 18.18C41.3074 18.3205 41.2152 18.4354 41.0965 18.5276C40.987 18.6128 40.8588 18.6629 40.7043 18.6758C40.5633 18.6876 40.4255 18.6539 40.2842 18.564L40.2843 18.564L40.279 18.5608L36.129 16.0608Z" fill="#EFA150" stroke="black" stroke-width="0.5"/>
<path d="M84.129 16.0608L84 15.9831L83.871 16.0608L79.721 18.5608L79.721 18.5607L79.7158 18.564C79.5745 18.6539 79.4367 18.6876 79.2958 18.6758C79.1413 18.6629 79.013 18.6128 78.9035 18.5276C78.7849 18.4354 78.6927 18.3205 78.6257 18.18C78.5702 18.0634 78.5544 17.9264 78.5936 17.7564C78.5936 17.7563 78.5936 17.7562 78.5936 17.7562L79.6935 13.0316L79.7278 12.8845L79.6135 12.7858L75.9405 9.61252C75.8081 9.49285 75.7357 9.36707 75.7068 9.23434C75.6751 9.08855 75.6845 8.94909 75.735 8.81039C75.7887 8.66257 75.8662 8.54927 75.9646 8.4631C76.0504 8.38807 76.1816 8.32746 76.3789 8.29838L81.2218 7.874L81.3719 7.86085L81.4304 7.72202L83.3054 3.27202L83.3058 3.2711C83.3696 3.11802 83.4632 3.0125 83.5865 2.94201C83.7276 2.8614 83.8644 2.82495 84 2.82495C84.1356 2.82495 84.2724 2.8614 84.4135 2.94201C84.5368 3.0125 84.6305 3.11802 84.6942 3.27111L84.6946 3.27202L86.5696 7.72202L86.6281 7.86085L86.7782 7.874L91.6211 8.29838C91.8184 8.32746 91.9496 8.38807 92.0354 8.4631C92.1339 8.54927 92.2113 8.66257 92.2651 8.81039C92.3155 8.94909 92.3249 9.08855 92.2932 9.23434C92.2644 9.36707 92.1919 9.49286 92.0595 9.61253L88.3866 12.7858L88.2723 12.8845L88.3065 13.0316L89.4064 17.7562C89.4064 17.7563 89.4065 17.7564 89.4065 17.7565C89.4457 17.9265 89.4298 18.0634 89.3743 18.18C89.3074 18.3205 89.2152 18.4354 89.0965 18.5276C88.987 18.6128 88.8588 18.6629 88.7043 18.6758C88.5633 18.6876 88.4255 18.6539 88.2842 18.564L88.2843 18.564L88.279 18.5608L84.129 16.0608Z" fill="#EFA150" stroke="black" stroke-width="0.5"/>
<path d="M108.129 16.0608L108 15.9831L107.871 16.0608L103.721 18.5608L103.721 18.5607L103.716 18.564C103.575 18.6539 103.437 18.6876 103.296 18.6758C103.141 18.6629 103.013 18.6128 102.904 18.5276C102.785 18.4354 102.693 18.3205 102.626 18.18C102.57 18.0634 102.554 17.9264 102.594 17.7564C102.594 17.7563 102.594 17.7562 102.594 17.7562L103.694 13.0316L103.728 12.8845L103.613 12.7858L99.9405 9.61252C99.8081 9.49285 99.7357 9.36707 99.7068 9.23434C99.6751 9.08855 99.6845 8.94909 99.735 8.81039C99.7887 8.66257 99.8662 8.54927 99.9646 8.4631C100.05 8.38807 100.182 8.32746 100.379 8.29838L105.222 7.874L105.372 7.86085L105.43 7.72202L107.305 3.27202L107.306 3.2711C107.37 3.11802 107.463 3.0125 107.587 2.94201C107.728 2.8614 107.864 2.82495 108 2.82495C108.136 2.82495 108.272 2.8614 108.413 2.94201C108.537 3.0125 108.63 3.11802 108.694 3.27111L108.695 3.27202L110.57 7.72202L110.628 7.86085L110.778 7.874L115.621 8.29838C115.818 8.32746 115.95 8.38807 116.035 8.4631C116.134 8.54927 116.211 8.66257 116.265 8.81039C116.316 8.94909 116.325 9.08855 116.293 9.23434C116.264 9.36707 116.192 9.49286 116.06 9.61253L112.387 12.7858L112.272 12.8845L112.307 13.0316L113.406 17.7562C113.406 17.7563 113.406 17.7564 113.406 17.7565C113.446 17.9265 113.43 18.0634 113.374 18.18C113.307 18.3205 113.215 18.4354 113.097 18.5276C112.987 18.6128 112.859 18.6629 112.704 18.6758C112.563 18.6876 112.426 18.6539 112.284 18.564L112.284 18.564L112.279 18.5608L108.129 16.0608Z" fill="#EFA150" stroke="black" stroke-width="0.5"/>
</svg>
